HIERARCHY
ROOT Hips
{
    OFFSET 0.000000 0.000000 0.000000
    CHANNELS 6 Xposition Yposition Zposition Zrotation Xrotation Yrotation
    JOINT Chest
    {
        OFFSET -0.000000 0.078598 0.000000
        CHANNELS 3 Zrotation Xrotation Yrotation
        JOINT Chest2
        {
            OFFSET -0.000000 0.230468 0.000000
            CHANNELS 3 Zrotation Xrotation Yrotation
            JOINT Neck
            {
                OFFSET -0.000000 0.249638 0.000000
                CHANNELS 3 Zrotation Xrotation Yrotation
                JOINT Head
                {
                    OFFSET -0.000000 0.103998 0.019170
                    CHANNELS 3 Zrotation Xrotation Yrotation
                    End Site
                    {
                        OFFSET -0.000000 0.191701 0.000000
                    }
                }
            }
            JOINT LeftCollar
            {
                OFFSET 0.038274 0.205938 -0.001496
                CHANNELS 3 Zrotation Xrotation Yrotation
                JOINT LeftShoulder
                {
                    OFFSET 0.132388 0.000000 0.000000
                    CHANNELS 3 Zrotation Xrotation Yrotation
                    JOINT LeftElbow
                    {
                        OFFSET 0.250301 0.000000 0.000000
                        CHANNELS 3 Zrotation Xrotation Yrotation
                        JOINT LeftWrist
                        {
                            OFFSET 0.285291 0.000000 0.000000
                            CHANNELS 3 Zrotation Xrotation Yrotation
                            End Site
                            {
                                OFFSET 0.000000 -0.143776 0.000000
                            }
                        }
                    }
                }
            }
            JOINT RightCollar
            {
                OFFSET -0.038406 0.205938 -0.001496
                CHANNELS 3 Zrotation Xrotation Yrotation
                JOINT RightShoulder
                {
                    OFFSET -0.132388 0.000000 0.000000
                    CHANNELS 3 Zrotation Xrotation Yrotation
                    JOINT RightElbow
                    {
                        OFFSET -0.250301 0.000000 0.000000
                        CHANNELS 3 Zrotation Xrotation Yrotation
                        JOINT RightWrist
                        {
                            OFFSET -0.285291 0.000000 0.000000
                            CHANNELS 3 Zrotation Xrotation Yrotation
                            End Site
                            {
                                OFFSET -0.000000 -0.143776 0.000000
                            }
                        }
                    }
                }
            }
        }
    }
    JOINT LeftHip
    {
        OFFSET 0.095851 0.000000 0.000000
        CHANNELS 3 Zrotation Xrotation Yrotation
        JOINT LeftKnee
        {
            OFFSET -0.000000 -0.406444 0.000000
            CHANNELS 3 Zrotation Xrotation Yrotation
            JOINT LeftAnkle
            {
                OFFSET -0.000000 -0.408443 0.000000
                CHANNELS 3 Zrotation Xrotation Yrotation
                JOINT LeftToe
                {
                    OFFSET -0.000000 -0.062303 0.143776
                    CHANNELS 3 Zrotation Xrotation Yrotation
                    End Site
                    {
                        OFFSET -0.000000 0.000000 0.038340
                    }
                }
            }
        }
    }
    JOINT RightHip
    {
        OFFSET -0.095851 0.000000 0.000000
        CHANNELS 3 Zrotation Xrotation Yrotation
        JOINT RightKnee
        {
            OFFSET -0.000000 -0.406444 0.000000
            CHANNELS 3 Zrotation Xrotation Yrotation
            JOINT RightAnkle
            {
                OFFSET -0.000000 -0.408443 0.000000
                CHANNELS 3 Zrotation Xrotation Yrotation
                JOINT RightToe
                {
                    OFFSET -0.000000 -0.062303 0.143776
                    CHANNELS 3 Zrotation Xrotation Yrotation
                    End Site
                    {
                        OFFSET -0.000000 0.000000 0.038340
                    }
                }
            }
        }
    }
}
MOTION
Frames:    9
Frame Time:    0.016667
-0.052836    0.842720    0.519436    6.306453    -4.058650    -179.000504    2.465780    14.732523    8.386797    -25.277754    -0.760958    2.735397    2.279461    2.642080    -2.651628    -13.602512    -4.191399    -1.115235    7.627742    8.896190    -7.758280    -42.665344    23.618505    -5.857811    -9.437569    -8.777689    -26.050295    113.194260    -27.319326    16.644371    -12.214258    -6.330796    8.241727    -0.515759    -10.116255    8.907001    -23.489372    -44.117775    2.678419    -117.844788    -6.330338    -45.287861    16.131025    -30.516460    -2.793220    -12.849858    37.162041    -0.019705    -2.600620    -17.046181    5.693498    0.000000    0.000000    0.000000    -3.502033    10.747225    -19.341331    4.043889    18.873533    -13.504448    14.130452    -13.701626    -20.194109    0.000000    0.000000    0.000000    
-0.050710    0.842964    0.517865    6.549405    -4.245374    -178.770035    2.471606    14.658381    8.748728    -25.250608    -0.388180    2.938886    2.118899    2.691749    -2.863184    -13.086073    -3.583090    -1.337628    7.797576    9.220381    -7.174226    -43.016285    24.396212    -6.080005    -9.883010    -8.658689    -24.551401    113.601593    -27.915901    16.729143    -12.427591    -6.822333    8.700232    0.008234    -12.209162    8.468279    -21.781301    -41.895641    4.844017    -117.920540    -6.934562    -42.924084    16.056355    -30.869719    -3.014074    -12.286502    37.574173    -0.267629    -2.336168    -16.994583    6.011280    0.000000    0.000000    0.000000    -3.370150    10.528172    -18.665981    3.737507    17.114624    -13.049869    14.262909    -13.864119    -21.236366    0.000000    0.000000    0.000000    
-0.048353    0.843102    0.516078    6.869804    -4.476158    -178.512131    2.399420    14.508452    9.245567    -24.887794    -0.203178    3.141679    2.107207    3.009973    -3.105518    -12.620909    -3.499667    -1.621330    7.644599    9.469577    -6.937963    -43.439404    25.147482    -5.819854    -10.076797    -8.761436    -23.378193    113.703186    -27.944450    16.799377    -12.508345    -7.316618    8.915814    0.575037    -13.612226    7.941576    -20.661591    -39.246719    7.037775    -117.279030    -8.701478    -40.360722    16.236738    -31.370239    -3.376607    -12.267241    38.117455    -0.653009    -1.726314    -17.023777    6.935054    0.000000    0.000000    0.000000    -2.990750    10.503925    -18.498428    3.206315    14.839269    -14.331880    14.227657    -13.320503    -20.561815    0.000000    0.000000    0.000000    
-0.046261    0.843054    0.514437    7.111093    -4.616005    -178.369232    2.421097    14.479001    9.667669    -24.753378    -0.263960    3.269488    2.461297    3.265735    -3.281135    -12.453075    -3.450872    -1.752249    7.615871    9.714770    -6.424853    -44.058609    26.007669    -5.734824    -9.860728    -8.967905    -21.978346    113.909950    -27.988462    16.900387    -12.211839    -7.322681    9.013847    0.718673    -14.822078    7.705951    -19.728294    -37.541615    9.096118    -117.746231    -9.408728    -38.603451    16.457052    -31.691542    -3.546577    -12.207349    38.573513    -0.979804    -1.308326    -17.121105    7.291458    0.000000    0.000000    0.000000    -2.811285    10.492459    -18.515690    2.701190    12.842813    -15.529641    14.292179    -12.695798    -19.921572    0.000000    0.000000    0.000000    
-0.044591    0.842718    0.513152    7.312504    -4.706760    -178.248428    2.535290    14.446662    10.203186    -24.690683    -0.138117    3.479782    2.917345    3.118279    -3.483964    -12.198905    -3.280828    -1.899276    7.755475    9.712171    -5.921192    -44.580338    25.563097    -5.889185    -10.571067    -8.568054    -20.537308    114.728539    -27.974415    16.713415    -12.124800    -7.512600    8.842952    0.956802    -14.467950    7.384864    -19.822094    -36.813755    10.138256    -117.627640    -9.521473    -37.725380    16.595949    -31.885408    -3.845118    -12.147313    38.826611    -0.580186    -1.314956    -17.336355    7.063773    0.000000    0.000000    0.000000    -2.888681    10.336198    -18.304680    2.290895    11.616236    -16.334520    14.251456    -12.177354    -18.666939    0.000000    0.000000    0.000000    
-0.043194    0.842268    0.512245    7.400700    -4.716266    -178.216797    2.541826    14.596004    10.581121    -24.492130    -0.432954    3.543423    3.300335    3.693586    -3.668192    -12.079032    -4.160879    -2.116116    7.461315    10.191768    -5.385280    -44.695122    24.103550    -5.940593    -11.570676    -7.758243    -19.211536    115.566475    -27.852091    16.140675    -11.932814    -7.188094    8.815598    0.765667    -13.853501    7.749712    -20.389597    -36.443188    9.894716    -117.573708    -9.384347    -37.302982    16.636997    -31.889175    -4.024148    -11.891010    38.970860    -0.358859    -1.644472    -17.693487    6.658060    0.000000    0.000000    0.000000    -3.308872    10.177826    -17.360199    2.385484    10.761132    -16.055347    14.165933    -12.279341    -18.946815    0.000000    0.000000    0.000000    
-0.041995    0.841611    0.511749    7.430499    -4.691167    -178.213470    2.649590    14.695022    10.984647    -24.357134    -0.454269    3.679065    3.569409    3.680382    -3.863009    -11.711839    -4.475379    -2.340005    7.531542    10.134452    -5.179765    -45.502110    23.059727    -5.687008    -12.126586    -7.368632    -17.774097    115.731995    -27.954243    15.759909    -12.101611    -7.123885    8.719649    0.654848    -13.135224    7.778081    -20.696686    -36.786171    9.905184    -117.525208    -9.054922    -37.542923    16.757225    -31.883072    -4.155156    -11.997146    39.026985    -0.540168    -1.572043    -17.949621    6.954082    0.000000    0.000000    0.000000    -3.891615    9.781081    -16.297869    2.433039    10.703279    -15.138240    13.757906    -12.382256    -19.256693    0.000000    0.000000    0.000000    
-0.040326    0.840891    0.512131    7.411721    -4.671755    -178.137680    2.695740    14.844258    11.232713    -24.170832    -0.525544    3.750653    3.824507    3.514358    -3.994651    -11.424510    -4.551674    -2.473217    7.513563    10.201330    -4.840559    -46.050934    22.244802    -5.627020    -12.547716    -7.453121    -16.713419    115.398666    -27.989256    15.713381    -12.039412    -6.759871    8.717038    0.129511    -12.957014    7.871410    -20.952763    -37.036243    9.824244    -117.146301    -9.017057    -37.750362    16.881514    -32.144691    -4.316013    -12.212670    39.409313    -0.091348    -1.776132    -17.865833    6.578819    0.000000    0.000000    0.000000    -4.510383    9.325224    -15.228004    2.652218    10.964437    -14.153173    13.837893    -12.956186    -20.384560    0.000000    0.000000    0.000000    
-0.038285    0.839982    0.513342    7.499147    -4.602669    -177.885162    3.055068    14.979198    11.231015    -24.051361    -0.387972    3.796973    3.975507    3.432778    -4.060463    -11.218552    -5.015068    -2.583325    7.403550    10.383933    -4.561833    -46.455463    21.841290    -5.714164    -12.538543    -7.808454    -15.875756    115.065887    -27.804550    15.842771    -12.169167    -6.705905    8.748801    -0.201179    -13.148317    7.961975    -21.235611    -36.919445    10.009745    -116.860573    -8.926746    -37.536812    17.056894    -32.543633    -4.461427    -12.370625    39.877728    -0.372673    -1.666495    -17.689243    6.791003    0.000000    0.000000    0.000000    -4.871857    8.905309    -14.909533    2.742318    11.499721    -13.824809    13.881618    -13.281619    -20.741716    0.000000    0.000000    0.000000    
